<?xml version="1.0" standalone="no"?>
<!DOCTYPE svg PUBLIC "-//W3C//DTD SVG 20010904//EN"
 "http://www.w3.org/TR/2001/REC-SVG-20010904/DTD/svg10.dtd">
<svg version="1.0" xmlns="http://www.w3.org/2000/svg"
 width="159.000000pt" height="73.000000pt" viewBox="0 0 159.000000 73.000000"
 preserveAspectRatio="xMidYMid meet">

<g transform="translate(0.000000,73.000000) scale(0.100000,-0.100000)"
fill="#000000" stroke="none">
<path d="M321 703 c-12 -10 -24 -35 -28 -55 -5 -32 -1 -41 25 -68 17 -16 40
-30 52 -30 29 0 76 26 84 45 12 33 6 82 -14 103 -26 27 -88 30 -119 5z"/>
<path d="M125 500 l-120 -120 185 -185 185 -185 122 122 123 123 -60 60 -60
60 -63 -63 -63 -62 -67 68 -67 67 62 63 63 62 -55 55 c-30 30 -57 55 -60 55
-3 0 -59 -54 -125 -120z"/>
<path d="M447 562 l-57 -57 120 -120 120 -120 60 60 60 60 -117 117 c-65 65
-120 118 -123 118 -3 0 -31 -26 -63 -58z"/>
<path d="M322 437 l-52 -53 55 -54 55 -54 55 54 55 54 -52 53 c-29 29 -55 53
-58 53 -3 0 -29 -24 -58 -53z"/>
<path d="M769 354 c-15 -18 -2 -48 22 -50 8 0 9 1 2 3 -27 10 -23 44 7 56 13
4 12 6 -1 6 -9 1 -22 -6 -30 -15z"/>
<path d="M834 356 c-10 -26 1 -51 23 -54 14 -2 23 3 28 18 12 37 -38 71 -51
36z m41 -21 c0 -11 -8 -21 -17 -23 -14 -3 -18 3 -18 23 0 20 4 26 18 23 9 -2
17 -12 17 -23z"/>
<path d="M901 333 c1 -28 3 -31 6 -13 l5 24 13 -23 13 -24 13 24 13 24 7 -25
c6 -22 7 -20 8 13 1 40 -13 50 -24 17 -3 -11 -10 -20 -15 -20 -5 0 -12 9 -15
20 -11 33 -25 22 -24 -17z"/>
<path d="M993 335 c0 -22 2 -30 4 -17 2 12 2 30 0 40 -3 9 -5 -1 -4 -23z"/>
<path d="M1027 362 c6 -4 13 -21 16 -37 l4 -30 2 32 c0 17 7 34 14 36 6 3 -1
6 -18 6 -16 0 -25 -3 -18 -7z"/>
<path d="M1081 339 c-6 -18 -9 -34 -7 -37 3 -2 8 8 12 23 l7 28 13 -29 14 -29
-6 30 c-8 45 -20 50 -33 14z"/>
<path d="M1137 362 c6 -4 13 -21 16 -37 l4 -30 2 32 c0 17 7 34 14 36 6 3 -1
6 -18 6 -16 0 -25 -3 -18 -7z"/>
<path d="M1190 355 c-6 -8 -9 -23 -5 -35 9 -27 51 -27 60 0 7 23 -10 50 -30
50 -7 0 -18 -7 -25 -15z m43 -7 c6 -19 -3 -38 -18 -38 -7 0 -15 6 -18 13 -6
18 3 37 18 37 7 0 15 -6 18 -12z"/>
<path d="M771 203 c1 -21 3 -30 6 -20 2 9 10 17 16 17 7 0 6 4 -3 10 -13 9
-13 11 0 20 13 8 12 10 -2 10 -14 0 -18 -8 -17 -37z"/>
<path d="M823 205 c0 -22 2 -30 4 -17 2 12 2 30 0 40 -3 9 -5 -1 -4 -23z"/>
<path d="M871 203 c1 -21 3 -30 6 -20 2 9 10 17 16 17 7 0 6 4 -3 10 -13 9
-13 11 0 20 13 8 12 10 -2 10 -14 0 -18 -8 -17 -37z"/>
<path d="M917 232 c6 -4 13 -21 16 -37 l4 -30 2 33 c1 29 4 33 23 30 16 -2 25
-12 29 -33 l7 -30 1 32 c0 17 7 34 14 36 6 3 -15 6 -48 6 -33 0 -55 -3 -48 -7z"/>
<path d="M1031 203 c0 -21 3 -32 6 -25 4 9 8 10 18 2 11 -9 13 -4 12 22 -1 22
-8 34 -19 36 -15 3 -18 -4 -17 -35z m29 18 c0 -6 -4 -13 -10 -16 -5 -3 -10 1
-10 9 0 9 5 16 10 16 6 0 10 -4 10 -9z"/>
<path d="M1090 221 c-11 -21 -4 -51 12 -51 7 0 6 5 -1 14 -13 16 -4 46 14 46
18 0 27 -30 14 -46 -7 -9 -8 -14 -1 -14 16 0 23 30 12 51 -6 10 -17 19 -25 19
-8 0 -19 -9 -25 -19z"/>
<path d="M1158 233 c6 -2 13 -19 13 -36 2 -28 2 -29 6 -7 3 14 10 31 15 38 8
9 4 12 -18 11 -16 0 -23 -3 -16 -6z"/>
<path d="M1221 203 c1 -21 3 -30 6 -20 2 9 10 17 16 17 7 0 6 4 -3 10 -13 9
-13 11 0 20 13 8 12 10 -2 10 -14 0 -18 -8 -17 -37z"/>
<path d="M1270 221 c-11 -21 -4 -51 11 -51 6 0 5 8 -1 19 -8 16 -6 23 12 35
18 13 19 16 6 16 -10 0 -22 -9 -28 -19z"/>
<path d="M1331 205 c1 -40 1 -40 10 -10 5 18 5 33 -1 39 -7 7 -10 -4 -9 -29z"/>
<path d="M1403 205 c0 -22 2 -30 4 -17 2 12 2 30 0 40 -3 9 -5 -1 -4 -23z"/>
<path d="M1440 225 c-14 -17 -10 -47 8 -51 7 -1 8 0 2 3 -16 8 -12 41 8 52 9
6 12 11 6 11 -6 0 -17 -7 -24 -15z"/>
<path d="M1500 225 c-14 -17 -10 -47 8 -53 11 -3 11 -1 1 17 -10 15 -11 23 -2
32 17 17 36 0 30 -27 -2 -13 0 -24 4 -24 16 0 10 58 -7 64 -21 8 -20 8 -34 -9z"/>
<path d="M1350 202 c0 -5 7 -15 15 -22 8 -7 15 -8 15 -2 0 5 -7 15 -15 22 -8
7 -15 8 -15 2z"/>
<path d="M773 65 c0 -22 2 -30 4 -17 2 12 2 30 0 40 -3 9 -5 -1 -4 -23z"/>
<path d="M808 65 c5 -45 12 -45 12 0 0 19 -4 35 -8 35 -4 0 -6 -16 -4 -35z"/>
<path d="M851 69 c-13 -39 -14 -49 -1 -29 8 12 13 13 30 2 23 -14 23 -14 9 27
-14 39 -24 39 -38 0z m24 1 c3 -5 1 -10 -4 -10 -6 0 -11 5 -11 10 0 6 2 10 4
10 3 0 8 -4 11 -10z"/>
<path d="M911 68 c-1 -30 3 -38 17 -38 11 0 13 3 5 8 -6 4 -13 21 -16 37 -4
27 -4 27 -6 -7z"/>
<path d="M963 65 c0 -22 2 -30 4 -17 2 12 2 30 0 40 -3 9 -5 -1 -4 -23z"/>
<path d="M991 69 c-13 -39 -14 -49 -1 -29 8 12 13 13 30 2 23 -14 23 -14 9 27
-14 39 -24 39 -38 0z m24 1 c3 -5 1 -10 -4 -10 -6 0 -11 5 -11 10 0 6 2 10 4
10 3 0 8 -4 11 -10z"/>
<path d="M1051 64 c1 -25 3 -30 6 -16 4 23 5 23 24 6 29 -26 23 -1 -6 26 l-25
23 1 -39z"/>
<path d="M1127 94 c-12 -12 -8 -41 8 -54 20 -17 47 5 43 34 -3 21 -37 34 -51
20z m41 -26 c-2 -13 -10 -23 -18 -23 -8 0 -16 10 -18 23 -3 17 2 22 18 22 16
0 21 -5 18 -22z"/>
</g>
</svg>
