<?xml version="1.0" standalone="no"?>
<!DOCTYPE svg PUBLIC "-//W3C//DTD SVG 20010904//EN"
 "http://www.w3.org/TR/2001/REC-SVG-20010904/DTD/svg10.dtd">
<svg version="1.0" xmlns="http://www.w3.org/2000/svg"
 width="76.000000pt" height="73.000000pt" viewBox="0 0 76.000000 73.000000"
 preserveAspectRatio="xMidYMid meet">

<g transform="translate(0.000000,73.000000) scale(0.100000,-0.100000)"
fill="#000000" stroke="none">
<path d="M321 703 c-12 -10 -24 -35 -28 -55 -5 -32 -1 -41 25 -68 17 -16 40
-30 52 -30 29 0 76 26 84 45 12 33 6 82 -14 103 -26 27 -88 30 -119 5z"/>
<path d="M125 500 l-120 -120 185 -185 185 -185 122 122 123 123 -60 60 -60
60 -63 -63 -63 -62 -67 68 -67 67 62 63 63 62 -55 55 c-30 30 -57 55 -60 55
-3 0 -59 -54 -125 -120z"/>
<path d="M447 562 l-57 -57 120 -120 120 -120 60 60 60 60 -117 117 c-65 65
-120 118 -123 118 -3 0 -31 -26 -63 -58z"/>
<path d="M322 437 l-52 -53 55 -54 55 -54 55 54 55 54 -52 53 c-29 29 -55 53
-58 53 -3 0 -29 -24 -58 -53z"/>
</g>
</svg>
